<svg xmlns="http://www.w3.org/2000/svg" viewBox="0 0 302.78 330.89"><defs><style>.cls-1{fill:none;stroke:#02bad5;stroke-miterlimit:10;stroke-width:15px;}.cls-2{fill:#02bad5;}</style></defs><g id="Capa_2" data-name="Capa 2"><g id="Capa_1-2" data-name="Capa 1"><path class="cls-1" d="M295.16,165.87c0,24.27-.15,48.54.12,72.8.05,5.2-1.64,8.08-6.27,10.69-42.93,24.19-85.67,48.73-128.66,72.82-2.78,1.56-8,1.63-10.75.09-43-24.11-85.7-48.68-128.62-72.9-4.63-2.62-6.24-5.6-6.23-10.75q.25-73.2,0-146.39c0-5.21,1.69-8.11,6.29-10.71C64,57.3,106.7,32.76,149.69,8.65a13,13,0,0,1,10.74,0c43,24.12,85.7,48.68,128.62,72.91,4.6,2.6,6.29,5.49,6.23,10.7C295,116.81,295.16,141.34,295.16,165.87Z"/><path class="cls-2" d="M217.63,242.48h30.86a.87.87,0,0,0,.3-1.29l-38.55-52.65a.88.88,0,0,1,.33-1.3c3.16-1.52,6.07-2.78,8.78-4.38,18.21-10.75,26.89-33.78,21-55.27a48.28,48.28,0,0,0-45.4-35.08c-15.66-.2-31.33.08-47-.07a9.06,9.06,0,0,0-8,4q-17.59,23-35.31,45.92c-3.93,5.09-7.9,10.16-11.86,15.23l-3-1V93.3a.87.87,0,0,0-.88-.87h-27a.87.87,0,0,0-.88.87V242.52a.87.87,0,0,0,.88.87H89.05a.88.88,0,0,0,.87-.88C89.92,229,89.86,216,90,203c0-1.83.48-4.15,1.64-5.39,3-3.18,6.39-6,9.81-9a.87.87,0,0,1,1.24.07c.47.54,1.09,1.27,1.67,2,11.75,15.74,23.44,31.51,35.27,47.19,1.31,1.75,3.17,4.19,4.9,4.6h32c.69,0,1-.51.63-1.09-1.06-1.57-1.83-2.74-2.66-3.86q-25.08-33.61-50.23-67.16c-2.1-2.8-2.59-4.74-.09-7.73,10.77-12.89,21.21-26.07,32-39a10.72,10.72,0,0,1,6.89-3.37c10-.32,20.07-.32,30.1-.18,12.67.17,21,8.89,21,21.76,0,13.62-8.2,22.3-21.29,22.42-3.5,0-7,0-10.49,0H162.11a.87.87,0,0,0-.78,1.25,35.87,35.87,0,0,0,2.72,5.3q24.66,34.53,49.46,69c.81,1.12,2.15,2.6,3.27,2.62Z"/><circle class="cls-2" cx="37.52" cy="73.67" r="18.76"/><circle class="cls-2" cx="206.52" cy="294.55" r="18.76"/><circle class="cls-2" cx="269" cy="74.49" r="18.76"/><circle class="cls-2" cx="18.76" cy="247.9" r="18.76"/></g></g></svg>